<svg xmlns="http://www.w3.org/2000/svg" viewBox="0 0 647.1 118.86"><g id="Livello_2" data-name="Livello 2"><g id="Livello_1-2" data-name="Livello 1"><polygon points="558.93 39.83 558.93 84.59 545.03 84.59 545.03 39.83 534.38 39.83 534.38 26.03 545.03 26.03 545.03 13.55 558.93 13.55 558.93 26.03 569.58 26.03 569.58 39.83 558.93 39.83" style="fill:#fff"/><polygon points="504.35 39.83 504.35 84.59 490.46 84.59 490.46 39.83 479.81 39.83 479.81 26.03 490.46 26.03 490.46 13.55 504.35 13.55 504.35 26.03 515 26.03 515 39.83 504.35 39.83" style="fill:#fff"/><rect x="369.25" y="8.6" width="13.79" height="76" style="fill:#fff"/><path d="M252,84.59V49.77a11,11,0,0,0-3.45-8.22,11.2,11.2,0,0,0-8.21-3.45,11.78,11.78,0,0,0-11.77,11.67V84.59H214.76V8.6h13.79V28.67A21.7,21.7,0,0,1,242,24.2a22.16,22.16,0,0,1,17.25,7.91,25.67,25.67,0,0,1,5,8.17,27.3,27.3,0,0,1,1.62,9.49V84.59Z" style="fill:#fff"/><rect x="101.25" y="26.03" width="13.79" height="58.57" style="fill:#fff"/><path d="M181.72,64.21a17.13,17.13,0,1,1,0-18.2l11.67-7.35a30.94,30.94,0,1,0,0,32.89Z" style="fill:#fff"/><circle cx="108.15" cy="8.62" r="8.62" style="fill:#fff"/><path d="M329.81,66.51a16.89,16.89,0,0,1-12.65,5.71,17.12,17.12,0,0,1-16-11.15H347.5a31.06,31.06,0,1,0-6.86,14.09ZM317.16,38a17.12,17.12,0,0,1,16,11.14H301.12A17.12,17.12,0,0,1,317.16,38Z" style="fill:#fff"/><path d="M454.85,33.23a30.89,30.89,0,0,0-52.74,21.91,30.89,30.89,0,0,0,61.78,0A30.29,30.29,0,0,0,454.85,33.23Zm-9.93,34a16.35,16.35,0,0,1-12,5,17,17,0,0,1-17-17,17,17,0,0,1,17-17,17.14,17.14,0,0,1,17,17A16.49,16.49,0,0,1,444.92,67.21Z" style="fill:#fff"/><path d="M638.06,33.23a30.89,30.89,0,0,0-52.74,21.91,30.89,30.89,0,0,0,61.78,0A30.25,30.25,0,0,0,638.06,33.23Zm-9.93,34a16.35,16.35,0,0,1-12,5,17,17,0,0,1-17-17,17,17,0,0,1,17-17,17.14,17.14,0,0,1,17,17A16.49,16.49,0,0,1,628.13,67.21Z" style="fill:#fff"/><polygon points="61.77 84.59 61.77 36.52 44.23 84.59 31.34 84.59 13.79 36.32 13.79 84.59 0 84.59 0 8.62 18.36 8.62 37.73 61.88 57.21 8.62 75.57 8.62 75.57 84.59 61.77 84.59" style="fill:#fff"/><rect y="105.29" width="75.59" height="13.57" style="fill:#e62a32"/><path d="M369.45,105.19h1.9l5,6.46,5-6.46h1.9v13.3h-2.09V108.7l-4.84,6.18-4.85-6.18v9.79h-2.09Z" style="fill:#fff"/><path d="M394.21,105a6.84,6.84,0,1,1-7,6.84A6.86,6.86,0,0,1,394.21,105Zm0,11.78a4.94,4.94,0,1,0-4.94-4.94A4.91,4.91,0,0,0,394.21,116.78Z" style="fill:#fff"/><path d="M405.1,105.19h5.51a4.15,4.15,0,0,1,4.36,4.18,3.9,3.9,0,0,1-1.27,3,4.33,4.33,0,0,1-1.27.8l3,5.32h-2.37l-2.76-4.94h-3.13v4.94H405.1Zm5.51,6.46a2.28,2.28,0,0,0,0-4.56h-3.42v4.56Z" style="fill:#fff"/><path d="M419.12,105.19h9.4v2h-7.31v3.42H427v2h-5.79v3.89h7.5v2h-9.59Z" style="fill:#fff"/><path d="M439.18,107.18h-4v-2h10.07v2h-4v11.31h-2.09Z" style="fill:#fff"/><path d="M448.45,105.19h2.09v5.6h6.56v-5.6h2.09v13.3H457.1v-5.8h-6.56v5.8h-2.09Z" style="fill:#fff"/><path d="M467.51,105.19h2.28l5.32,13.3h-2.19l-1.33-3.42H465.7l-1.32,3.42h-2.19Zm3.32,8-2.18-5.51-2.19,5.51Z" style="fill:#fff"/><path d="M478.11,105.19H480l7.32,9.78v-9.78h2.09v13.3h-1.9l-7.32-9.79v9.79h-2.09Z" style="fill:#fff"/><path d="M499,105.19h1.9l5,6.46,5-6.46h1.9v13.3h-2.09V108.7L506,114.88l-4.85-6.18v9.79H499Z" style="fill:#fff"/><path d="M523.79,105a6.84,6.84,0,1,1-7,6.84A6.86,6.86,0,0,1,523.79,105Zm0,11.78a4.94,4.94,0,1,0-4.94-4.94A4.91,4.91,0,0,0,523.79,116.78Z" style="fill:#fff"/><path d="M536.76,107.18h-4v-2h10.07v2h-4v11.31h-2.09Z" style="fill:#fff"/><path d="M551.83,105a6.84,6.84,0,1,1-7,6.84A6.86,6.86,0,0,1,551.83,105Zm0,11.78a4.94,4.94,0,1,0-4.94-4.94A4.91,4.91,0,0,0,551.83,116.78Z" style="fill:#fff"/><path d="M562.72,105.19h5.51a4.16,4.16,0,0,1,4.37,4.18,3.9,3.9,0,0,1-1.28,3,4.2,4.2,0,0,1-1.27.8l3,5.32H570.7l-2.76-4.94h-3.13v4.94h-2.09Zm5.51,6.46a2.28,2.28,0,0,0,0-4.56h-3.42v4.56Z" style="fill:#fff"/><path d="M576.84,115.26a3.38,3.38,0,0,0,.79.76,4.39,4.39,0,0,0,2.53.76c1.73,0,2.66-.94,2.66-2,0-2.94-7-1.14-7-6.08,0-2,1.73-3.7,4.56-3.7a6,6,0,0,1,3.12.85,4.53,4.53,0,0,1,1.06.86l-1.43,1.42a3.67,3.67,0,0,0-2.75-1.23c-1.62,0-2.47.83-2.47,1.8,0,3,7,1.14,7,6.08,0,2.09-1.81,3.9-4.75,3.9a6.49,6.49,0,0,1-3.59-1,5,5,0,0,1-1.16-1Z" style="fill:#fff"/><path d="M588.48,105.19h5.32a4.28,4.28,0,1,1,0,8.55h-3.23v4.75h-2.09Zm5.32,6.65a2.38,2.38,0,1,0,0-4.75h-3.23v4.75Z" style="fill:#fff"/><path d="M608.11,105a6.84,6.84,0,1,1-7,6.84A6.86,6.86,0,0,1,608.11,105Zm0,11.78a4.94,4.94,0,1,0-4.94-4.94A4.91,4.91,0,0,0,608.11,116.78Z" style="fill:#fff"/><path d="M619,105.19h5.51a4.15,4.15,0,0,1,4.36,4.18,3.9,3.9,0,0,1-1.27,3,4.33,4.33,0,0,1-1.27.8l3,5.32H627l-2.75-4.94h-3.13v4.94H619Zm5.51,6.46a2.28,2.28,0,0,0,0-4.56h-3.42v4.56Z" style="fill:#fff"/><path d="M635.11,107.18h-4v-2h10.07v2h-4v11.31h-2.09Z" style="fill:#fff"/></g></g></svg>